# xmcd CD database file generated by MAGIX-FreeDB-MusicFinder_base v2.0beta1
# 
# Track frame offsets:
#      150
#      32527
#      46013
#      69038
#      80828
#      107174
#      128200
#      147936
#      170614
# 
# Disc length: 2543 seconds
# 
# Revision: 0 
# Processed by: cddbd v1.5.2PL0 Copyright (c) Steve Scherf et al.
# Submitted via: MAGIX-FreeDB-MusicFinder_base v2.0beta1
# 
DISCID=7209ed09
DTITLE=Fridolin's Heritage - Good Morning Blues
DYEAR=2009
DGENRE=Louisiana Blues
TTITLE0=Fridolin's Heritage - Good Morning Blues
TTITLE1=Fridolin's Heritage - How do you want it done
TTITLE2=Fridolin's Heritage - Fire and Ice
TTITLE3=Fridolin's Heritage - Mess around
TTITLE4=Fridolin's Heritage - Old Men Blues
TTITLE5=Fridolin's Heritage - Need me a Car
TTITLE6=Fridolin's Heritage - Texas Blues
TTITLE7=Fridolin's Heritage - Honkytonk Lover
TTITLE8=Fridolin's Heritage - Love in Vain
EXTD=
EXTT0=
EXTT1=
EXTT2=
EXTT3=
EXTT4=
EXTT5=
EXTT6=
EXTT7=
EXTT8=
PLAYORDER=
